{"asset":{"version":"2.0","generator":"Blockbench 4.8.3 glTF exporter"},"scenes":[{"nodes":[2],"name":"blockbench_export"}],"scene":0,"nodes":[{"name":"tooth","mesh":0},{"name":"gum","mesh":1},{"children":[0,1]}],"bufferViews":[{"buffer":0,"byteOffset":0,"byteLength":1152,"target":34962,"byteStride":12},{"buffer":0,"byteOffset":1152,"byteLength":1152,"target":34962,"byteStride":12},{"buffer":0,"byteOffset":2304,"byteLength":768,"target":34962,"byteStride":8},{"buffer":0,"byteOffset":3072,"byteLength":192,"target":34963},{"buffer":0,"byteOffset":3264,"byteLength":1872,"target":34962,"byteStride":12},{"buffer":0,"byteOffset":5136,"byteLength":1872,"target":34962,"byteStride":12},{"buffer":0,"byteOffset":7008,"byteLength":1248,"target":34962,"byteStride":8},{"buffer":0,"byteOffset":8256,"byteLength":468,"target":34963}],"buffers":[{"byteLength":8724,"uri":"data:application/octet-stream;base64,"}],"accessors":[{"bufferView":0,"componentType":5126,"count":96,"max":[0.375,1.0625,0.375],"min":[-0.375,0.3125,-0.375],"type":"VEC3"},{"bufferView":1,"componentType":5126,"count":96,"max":[0.8944271802902222,0.4472135901451111,0.8944271802902222],"min":[-0.8944271802902222,-1,-0.8944271802902222],"type":"VEC3"},{"bufferView":2,"componentType":5126,"count":96,"max":[0.484375,0.5065062642097473],"min":[0.0034177624620497227,0],"type":"VEC2"},{"bufferView":3,"componentType":5123,"count":96,"max":[95],"min":[0],"type":"SCALAR"},{"bufferView":4,"componentType":5126,"count":156,"max":[0.5,0.3535533845424652,0.5],"min":[-0.5,3.0616171314629196e-17,-0.5],"type":"VEC3"},{"bufferView":5,"componentType":5126,"count":156,"max":[0.9807852506637573,1,0.9807852506637573],"min":[-0.9807852506637573,0.19509032368659973,-0.9807852506637573],"type":"VEC3"},{"bufferView":6,"componentType":5126,"count":156,"max":[0.9033976793289185,0.78125],"min":[0,0],"type":"VEC2"},{"bufferView":7,"componentType":5123,"count":234,"max":[155],"min":[0],"type":"SCALAR"}],"materials":[{"pbrMetallicRoughness":{"metallicFactor":0,"roughnessFactor":1,"baseColorTexture":{"index":0}},"alphaMode":"MASK","alphaCutoff":0.05,"doubleSided":true},{"pbrMetallicRoughness":{"metallicFactor":0,"roughnessFactor":1,"baseColorTexture":{"index":1}},"alphaMode":"MASK","alphaCutoff":0.05,"doubleSided":true}],"textures":[{"sampler":0,"source":0,"name":"clean_tooth_texture.png"},{"sampler":1,"source":1,"name":"gum_texture.png"}],"samplers":[{"magFilter":9728,"minFilter":9728,"wrapS":33071,"wrapT":33071},{"magFilter":9728,"minFilter":9728,"wrapS":33071,"wrapT":33071}],"images":[{"mimeType":"image/png","uri":"data:image/png;base64,"},{"mimeType":"image/png","uri":"data:image/png;base64,"}],"meshes":[{"primitives":[{"mode":4,"attributes":{"POSITION":0,"NORMAL":1,"TEXCOORD_0":2},"indices":3,"material":0}]},{"primitives":[{"mode":4,"attributes":{"POSITION":4,"NORMAL":5,"TEXCOORD_0":6},"indices":7,"material":1}]}]}